<?xml version="1.0" encoding="UTF-8"?>
<svg width="196px" height="256px" viewBox="0 0 196 256" version="1.1" xmlns="http://www.w3.org/2000/svg" xmlns:xlink="http://www.w3.org/1999/xlink">
    <!-- Generator: Sketch 54.1 (76490) - https://sketchapp.com -->
    <title>Combined Shape</title>
    <desc>Created with Sketch.</desc>
    <g id="Page-1" stroke="none" stroke-width="1" fill="none" fill-rule="evenodd">
        <path d="M148.564539,222.802423 C148.50053,224.215055 148.310338,225.619861 147.995857,227 L145.641588,237.33201 C143.153196,248.252636 133.441925,256 122.241381,256 L72.5633467,256 C61.3628033,256 51.6515322,248.252636 49.1631401,237.33201 L46.808871,227 C46.4797819,225.55575 46.2900738,224.112255 46.2308942,222.683592 C20.2270034,219.81341 3.27823743e-15,197.76884 0,171 L0,85 C-3.32036001e-15,57.887203 20.7501426,35.6208615 47.236105,33.2152984 C47.2993223,31.7966941 47.489788,30.38591 47.8055838,29 L50.1598528,18.6679899 C52.6482449,7.74736374 62.3595161,5.61022011e-15 73.5600594,3.55271368e-15 L123.238094,0 C134.438637,-2.05750643e-15 144.149908,7.74736374 146.6383,18.6679899 L148.99257,29 C149.319998,30.4369621 149.509449,31.8731774 149.569641,33.2947807 C175.669488,36.0739543 196,58.1627544 196,85 L196,171 C196,198.180785 175.145661,220.490778 148.564539,222.802423 Z M68,41 C35.9674845,41 10,66.9674845 10,99 L10,157 C10,189.032515 35.9674845,215 68,215 L128,215 C160.032515,215 186,189.032515 186,157 L186,99 C186,66.9674845 160.032515,41 128,41 L68,41 Z M68,51 L127,51 C153.509668,51 175,72.490332 175,99 L175,157 C175,183.509668 153.509668,205 127,205 L68,205 C41.490332,205 20,183.509668 20,157 L20,99 C20,72.490332 41.490332,51 68,51 Z" id="Combined-Shape" fill="#D8D8D8"></path>
    </g>
</svg>